# xmcd
#
# Track frame offsets:
# 150
# 18801
# 34778
# 54264
# 74253
# 89354
# 107511
# 128999
# 153526
# 176052
# 193124
# 211803
# 224939
# 245269
# 267131
# 286009
# 297689
# 314561
# 329349
#
# Disc length: 4703 seconds
#
# Revision: 0
# Processed by: cddbd v1.4PL0 Copyright (c) Steve Scherf et al.
# Submitted via: Audion 2.6.0 (http://www.panic.com/audion/)
#
DISCID=22125d13
DTITLE=V - GF
DYEAR=1900
DGENRE=
TTITLE0=V
TTITLE1=V
TTITLE2=V
TTITLE3=V
TTITLE4=V
TTITLE5=V
TTITLE6=V
TTITLE7=V
TTITLE8=V
TTITLE9=V
TTITLE10=V
TTITLE11=V
TTITLE12=V
TTITLE13=V
TTITLE14=V
TTITLE15=V
TTITLE16=V
TTITLE17=V
TTITLE18=V
EXTD=
EXTT0=
EXTT1=
EXTT2=
EXTT3=
EXTT4=
EXTT5=
EXTT6=
EXTT7=
EXTT8=
EXTT9=
EXTT10=
EXTT11=
EXTT12=
EXTT13=
EXTT14=
EXTT15=
EXTT16=
EXTT17=
EXTT18=
PLAYORDER=
